<svg xmlns="http://www.w3.org/2000/svg"><symbol id="icon-dribbble" viewBox="0 0 24 24"><title>icon-dribbble</title><path d="M15.12 12.929c.68 1.97 1.14 3.994 1.38 6.071 2.091-1.348 3.51-3.565 3.78-6.071-2.027-.139-3.388-.127-5.16 0m-1.18-3.016c.2.427.427.966.68 1.618 1.821-.172 3.853-.17 5.68-.08-.107-1.81-.76-3.422-1.96-4.833-.867 1.291-2.333 2.39-4.4 3.295M9.96 3.962c1.173 1.211 2.26 2.723 3.26 4.533 1.813-.759 3.18-1.724 4.1-2.896-2.231-1.843-4.98-2.29-7.36-1.637M6.9 18.58c2.4 1.866 5.376 2.218 8.04 1.198a29.322 29.322 0 0 0-1.56-6.61c-2.6.564-5.345 3.17-6.48 5.412M3.92 9.953c1.17.106 4.368.122 7.64-.859C10.547 7.297 9.433 5.8 8.22 4.601c-2.147 1.085-3.696 3.097-4.3 5.352m1.84 7.55c1.252-2.45 4.365-5.105 7.1-5.713-.2-.466-.393-.885-.58-1.258-2.772.886-5.932 1.218-8.6 1.079 0 2.13.349 3.932 2.08 5.891M2 12.01c0-3.747 2.008-6.918 4.98-8.647C13.603-.491 22 4.28 22 12.01c0 3.748-2.008 6.918-4.98 8.648a10.057 10.057 0 0 1-10.04 0C4.005 18.928 2 15.755 2 12.01"/></symbol><symbol id="icon-email" viewBox="0 0 24 24"><title>icon-email</title><path d="M2 4h20v16H2V4Zm18 4.238-7.928 7.1L4 8.216V18h16V8.238ZM4.511 6l7.55 6.662L19.502 6H4.511Z"/></symbol><symbol id="icon-facebook" viewBox="0 0 24 24"><title>icon-facebook</title><path d="M13.821 22v-9h2.733L17 9h-3.179V7.052c0-1.03.027-2.052 1.466-2.052h1.458V2.14c0-.043-1.253-.14-2.52-.14-2.645 0-4.302 1.657-4.302 4.7V9H7v4h2.923v9h3.898Z"/></symbol><symbol fill="none" id="icon-home" viewBox="0 0 24 24"><title>icon-home</title><path fill-rule="evenodd" clip-rule="evenodd" d="M11.31 1.112a1.125 1.125 0 0 1 1.38 0l9 7c.275.213.435.54.435.888v11A3.125 3.125 0 0 1 19 23.125H5A3.125 3.125 0 0 1 1.875 20V9c0-.347.16-.675.434-.888l9-7Zm-1.185 19.763h3.75v-7.75h-3.75v7.75Zm6 0V12c0-.621-.504-1.125-1.125-1.125H9c-.621 0-1.125.504-1.125 1.125v8.875H5A.875.875 0 0 1 4.125 20V9.55L12 3.425l7.875 6.125V20a.875.875 0 0 1-.875.875h-2.875Z" fill="#000"/></symbol><symbol id="icon-instagram" viewBox="0 0 24 24"><title>icon-instagram</title><path d="M7.87 2.123c-1.628.073-3.04.471-4.179 1.606-1.143 1.14-1.536 2.557-1.61 4.168-.045 1.005-.313 8.601.463 10.593a5.04 5.04 0 0 0 2.91 2.903c.634.246 1.356.412 2.416.461 8.86.401 12.145.183 13.53-3.364.246-.631.415-1.353.462-2.41.405-8.883-.066-10.809-1.61-12.351-1.225-1.222-2.666-2.054-12.382-1.606m.081 17.944c-.97-.043-1.496-.205-1.848-.341a3.255 3.255 0 0 1-1.888-1.883c-.591-1.514-.395-8.703-.342-9.866.051-1.14.282-2.18 1.086-2.985C5.954 4 7.24 3.513 15.993 3.908c1.142.052 2.186.282 2.992 1.084.995.993 1.489 2.288 1.087 11.008-.044.968-.206 1.493-.342 1.843-.901 2.308-2.973 2.628-11.779 2.224M16.09 6.69c0 .657.534 1.19 1.194 1.19.66 0 1.195-.533 1.195-1.19a1.194 1.194 0 0 0-2.39 0m-9.226 5.298a5.103 5.103 0 0 0 5.11 5.097 5.103 5.103 0 0 0 5.109-5.097 5.102 5.102 0 0 0-5.11-5.096 5.102 5.102 0 0 0-5.11 5.096m1.794 0a3.313 3.313 0 0 1 3.316-3.308 3.313 3.313 0 0 1 3.317 3.308 3.313 3.313 0 0 1-3.317 3.31 3.313 3.313 0 0 1-3.316-3.31"/></symbol><symbol id="icon-linkedin" viewBox="0 0 24 24"><title>icon-linkedin</title><path d="M22 22h-4v-6.999c0-1.92-.847-2.991-2.366-2.991-1.653 0-2.634 1.116-2.634 2.991V22H9V9h4v1.462s1.255-2.202 4.083-2.202C19.912 8.26 22 9.986 22 13.558V22ZM4.442 6.921A2.451 2.451 0 0 1 2 4.46 2.451 2.451 0 0 1 4.442 2a2.451 2.451 0 0 1 2.441 2.46 2.45 2.45 0 0 1-2.441 2.461ZM2 22h5V9H2v13Z"/></symbol><symbol id="icon-location" viewBox="0 0 24 24"><title>icon-location</title><path d="M12 1c3.866 0 7 3.078 7 6.875 0 .506-.094 1.114-.28 1.82l-.158.55-.192.586-.228.625-.262.66-.297.702-.333.737-.367.774-.403.813-.437.851-.473.888-.507.926-.543.962-.577 1.003-.613 1.038-.648 1.076L12 23l-.682-1.114-.648-1.076-.613-1.038-.577-1.002-.543-.963-.507-.926-.473-.888-.437-.851-.403-.811-.188-.394-.35-.756a30.438 30.438 0 0 1-.72-1.725l-.229-.625-.193-.587-.157-.55C5.094 8.99 5 8.382 5 7.875 5 4.078 8.134 1 12 1Zm0 3a3 3 0 1 0 0 6 3 3 0 0 0 0-6Z"/></symbol><symbol id="icon-phone" viewBox="0 0 24 24"><title>icon-phone</title><path opacity=".3" d="M7 4h10v14H7z"/><path d="M16 1H8C6.34 1 5 2.34 5 4v16c0 1.66 1.34 3 3 3h8c1.66 0 3-1.34 3-3V4c0-1.66-1.34-3-3-3Zm-2 20h-4v-1h4v1Zm3-3H7V4h10v14Z"/></symbol><symbol id="icon-twitter" viewBox="0 0 24 24"><title>icon-twitter</title><path d="M8.29 20c7.547 0 11.675-6.156 11.675-11.495 0-.175 0-.35-.012-.522A8.265 8.265 0 0 0 22 5.89a8.273 8.273 0 0 1-2.356.637 4.07 4.07 0 0 0 1.804-2.235 8.303 8.303 0 0 1-2.606.98 4.153 4.153 0 0 0-5.806-.175 4.006 4.006 0 0 0-1.187 3.86 11.717 11.717 0 0 1-8.457-4.22 4.005 4.005 0 0 0 1.271 5.392A4.122 4.122 0 0 1 2.8 9.625v.051c.001 1.923 1.378 3.579 3.292 3.96a4.144 4.144 0 0 1-1.852.069c.537 1.646 2.078 2.773 3.833 2.806A8.315 8.315 0 0 1 2 18.185a11.754 11.754 0 0 0 6.29 1.812"/></symbol></svg>